<svg width="214" height="19" viewBox="0 0 214 19" fill="none" xmlns="http://www.w3.org/2000/svg">
<path d="M21.311 8.28V14.832C19.511 17.064 16.199 18.552 11.711 18.552C4.82297 18.552 0.550969 15.288 0.550969 9.6C0.550969 3.912 4.82297 0.647999 11.711 0.647999C15.863 0.647999 18.863 2.112 20.615 3.744L17.039 6.384C15.599 5.088 14.087 4.512 11.831 4.512C7.75097 4.512 5.51897 6.312 5.51897 9.6C5.51897 12.912 7.82297 14.712 11.903 14.712C13.967 14.712 15.599 14.304 16.775 13.224V11.712H11.207V8.28H21.311ZM29.3288 14.064H40.6328V18H24.4328V1.2H29.3288V14.064ZM56.6671 1.2H61.5631V10.08C61.5631 15.192 58.0831 18.552 51.8191 18.552C45.5551 18.552 42.0511 15.192 42.0511 10.08V1.2H46.9471V9.696C46.9471 12.624 48.5791 14.52 51.8191 14.52C55.0591 14.52 56.6671 12.624 56.6671 9.696V1.2ZM74.9821 14.568C77.2381 14.568 78.9661 13.8 80.1421 12L84.3421 14.16C82.7821 16.632 79.3981 18.552 74.8621 18.552C68.5261 18.552 64.2541 15.264 64.2541 9.6C64.2541 3.936 68.5261 0.647999 75.0541 0.647999C79.3981 0.647999 82.7581 2.616 84.2701 5.016L80.0461 7.176C78.9421 5.448 77.2381 4.632 74.9821 4.632C71.5261 4.632 69.2221 6.384 69.2221 9.6C69.2221 12.816 71.5261 14.568 74.9821 14.568ZM96.5965 18.552C89.9485 18.552 85.6525 15.288 85.6525 9.6C85.6525 3.912 89.9485 0.647999 96.5965 0.647999C103.245 0.647999 107.565 3.912 107.565 9.6C107.565 15.288 103.245 18.552 96.5965 18.552ZM96.5965 14.568C100.293 14.568 102.573 12.768 102.573 9.6C102.573 6.432 100.293 4.632 96.5965 4.632C92.9245 4.632 90.6205 6.432 90.6205 9.6C90.6205 12.768 92.9005 14.568 96.5965 14.568ZM127.235 1.2V5.112H120.251V18H115.355V5.112H108.419V1.2H127.235ZM149.517 18H143.829L139.389 12.696H134.445V18H129.573V1.2H141.357C145.653 1.2 148.989 3.096 148.989 6.936C148.989 9.744 147.213 11.52 144.573 12.288L149.517 18ZM134.421 9.144H140.997C142.749 9.144 144.021 8.664 144.021 7.032C144.021 5.4 142.749 4.92 140.997 4.92H134.421V9.144ZM166.472 1.2H171.368V10.08C171.368 15.192 167.888 18.552 161.624 18.552C155.36 18.552 151.856 15.192 151.856 10.08V1.2H156.752V9.696C156.752 12.624 158.384 14.52 161.624 14.52C164.864 14.52 166.472 12.624 166.472 9.696V1.2ZM184.139 7.344C189.635 7.8 193.523 8.88 193.523 12.744C193.523 16.2 190.331 18.552 184.235 18.552C179.915 18.552 176.291 17.376 173.651 15.264L176.219 12.24C178.211 13.92 180.971 14.856 184.331 14.856C187.211 14.856 188.651 14.328 188.651 13.224C188.651 12.144 187.307 11.784 183.851 11.496C178.859 11.064 174.323 9.96 174.323 6.216C174.323 2.616 178.211 0.647999 183.539 0.647999C187.139 0.647999 190.451 1.512 192.755 3.144L190.283 6.192C188.411 4.872 186.155 4.344 183.539 4.32C181.571 4.32 179.195 4.632 179.195 5.832C179.195 6.96 181.139 7.104 184.139 7.344ZM213.087 1.2V5.112H206.103V18H201.207V5.112H194.271V1.2H213.087Z" fill="#104569"/>
</svg>
